<?xml version="1.0" encoding="iso-8859-1"?>
<!-- Uploaded to: SVG Repo, www.svgrepo.com, Generator: SVG Repo Mixer Tools -->
<svg height="800px" width="800px" version="1.1" id="Layer_1" xmlns="http://www.w3.org/2000/svg" xmlns:xlink="http://www.w3.org/1999/xlink" 
	 viewBox="0 0 512.001 512.001" xml:space="preserve">
<g>
	<path style="fill:#7DD2F0;" d="M7.94,371.228c-2.743,0-5.41-1.424-6.879-3.972c-2.187-3.794-0.884-8.645,2.91-10.832l24.807-14.298
		c18.013-10.382,39.522-10.382,57.535,0c3.795,2.187,5.098,7.036,2.911,10.832c-2.188,3.795-7.04,5.097-10.832,2.911
		c-13.055-7.525-28.64-7.525-41.692,0l-24.807,14.298C10.646,370.886,9.284,371.228,7.94,371.228z"/>
	<path style="fill:#7DD2F0;" d="M7.94,413.611c-2.743,0-5.41-1.424-6.879-3.972c-2.187-3.794-0.884-8.645,2.91-10.832l24.807-14.298
		c18.013-10.382,39.522-10.382,57.535,0c13.054,7.524,28.64,7.523,41.692,0c18.012-10.382,39.521-10.382,57.535,0
		c13.054,7.524,28.64,7.523,41.692,0c18.012-10.382,39.52-10.382,57.534,0c3.795,2.187,5.098,7.036,2.911,10.832
		c-2.188,3.795-7.039,5.096-10.832,2.911c-13.054-7.524-28.64-7.524-41.691,0c-18.013,10.382-39.523,10.382-57.535,0
		c-13.054-7.524-28.64-7.524-41.692,0c-18.012,10.381-39.521,10.383-57.535,0c-13.053-7.523-28.639-7.523-41.692,0L11.893,412.55
		C10.646,413.269,9.284,413.611,7.94,413.611z"/>
</g>
<path style="fill:#D9AE8C;" d="M416.237,270.086l-28.092-58.597l-62.839-30.045l0.067,0.316l-0.062-0.061
	c-5.552,2.044-10.886,4.794-15.85,8.255c14.974-17.276,36.117-28.658,63.138-33.933c15.763-3.077,26.048-18.351,22.971-34.113
	c-3.076-15.764-18.352-26.05-34.113-22.972c-68.112,13.295-101.199,53.183-116.962,84.304
	c-16.62,32.814-17.525,62.319-17.573,65.575c0,0-41.103,7.164-74.78,51.623c10.06-0.95,20.326,1.175,29.438,6.427l0,0
	c15.432,8.895,34.182,8.895,49.613,0l0,0c15.432-8.895,34.182-8.895,49.613,0l0,0c12.879,7.424,28.065,8.628,41.709,3.659
	c0.077-0.027,0.153-0.058,0.231-0.087c0.792-0.293,1.58-0.597,2.36-0.933c0.288-0.123,0.571-0.259,0.858-0.387
	c0.592-0.268,1.185-0.528,1.769-0.82c0.905-0.448,1.802-0.923,2.687-1.434l0,0c0.862-0.497,1.737-0.956,2.618-1.397
	c0.187-0.094,0.374-0.188,0.564-0.28c0.861-0.418,1.73-0.812,2.607-1.178c0.152-0.063,0.306-0.121,0.458-0.183
	c0.804-0.326,1.613-0.629,2.427-0.91c0.152-0.053,0.303-0.11,0.457-0.161c0.889-0.298,1.786-0.566,2.686-0.811
	c0.209-0.057,0.42-0.111,0.629-0.165c0.918-0.238,1.84-0.458,2.767-0.642c0.041-0.008,0.082-0.014,0.125-0.022
	c0.896-0.176,1.796-0.318,2.697-0.443c0.221-0.031,0.441-0.062,0.662-0.09c0.905-0.113,1.813-0.204,2.722-0.267
	c0.191-0.013,0.384-0.02,0.575-0.031c0.811-0.047,1.622-0.073,2.433-0.079c0.181-0.001,0.362-0.007,0.542-0.007
	c0.906,0.003,1.813,0.036,2.718,0.089c0.238,0.014,0.475,0.032,0.712,0.049c0.919,0.068,1.837,0.15,2.752,0.27
	c0.001,0,0.001,0,0.001,0c6.388,0.83,12.659,2.914,18.462,6.259c1.347,0.776,2.727,1.46,4.121,2.101
	c7.195-4.047,13.799-9.426,19.414-16.128c5.751-6.863,9.948-14.504,12.668-22.501l-0.328-0.319L416.237,270.086z"/>
<path style="fill:#F0C19C;" d="M388.145,211.488l-62.839-30.045l-0.137,0.049c-11.085,4.101-21.286,11.045-29.42,20.753
	c-24.947,29.774-21.034,74.133,8.739,99.08c4.801,4.023,9.985,7.284,15.402,9.819c3.62-1.095,7.157-2.588,10.529-4.531l0,0
	c15.432-8.895,34.182-8.895,49.613,0c1.347,0.776,2.727,1.46,4.121,2.101c7.195-4.047,13.799-9.426,19.414-16.128
	c5.751-6.863,9.948-14.504,12.668-22.501L388.145,211.488z"/>
<g>
	
		<ellipse transform="matrix(0.7001 -0.7141 0.7141 0.7001 -65.9541 301.9032)" style="fill:#70BBD6;" cx="326.411" cy="229.464" rx="16.301" ry="19.542"/>
	
		<ellipse transform="matrix(-0.7001 0.7141 -0.7141 -0.7001 823.6375 198.6488)" style="fill:#70BBD6;" cx="370.1" cy="272.298" rx="16.301" ry="19.542"/>
</g>
<path style="fill:#5199B3;" d="M387.082,255.007c-4.647-4.556-10.543-7.482-16.593-8.329c-2.07-3.304-4.877-6.751-8.248-10.057
	c-3.382-3.315-6.896-6.061-10.248-8.066c-0.933-5.871-3.831-11.706-8.625-16.406c-5.569-5.46-12.933-8.592-20.206-8.592
	c-6.348,0-12.163,2.366-16.373,6.66c-4.655,4.749-6.919,11.522-6.211,18.582c0.665,6.627,3.813,13.003,8.864,17.954
	c5.569,5.46,12.933,8.592,20.206,8.592c6.348,0,12.163-2.366,16.374-6.66c0.949-0.968,1.783-2.008,2.515-3.103
	c0.838,0.712,1.705,1.49,2.598,2.367c0.897,0.879,1.696,1.733,2.426,2.56c-1.088,0.761-2.119,1.608-3.06,2.568
	c-4.655,4.748-6.919,11.521-6.211,18.581c0.665,6.627,3.813,13.003,8.864,17.955c5.569,5.459,12.933,8.591,20.205,8.591
	c0.001,0,0.001,0,0.002,0c6.348,0,12.163-2.366,16.373-6.66C399.09,282.002,397.9,265.613,387.082,255.007z M329.649,239.482
	c-3.156,0-6.473-1.478-9.102-4.057c-2.369-2.322-3.895-5.315-4.186-8.211c-0.14-1.39-0.097-4.005,1.754-5.892
	c1.542-1.572,3.595-1.903,5.046-1.903c3.156,0,6.473,1.478,9.101,4.057c2.847,2.791,4.331,6.403,4.235,9.502
	c-0.002,0.023-0.003,0.045-0.005,0.069c-0.069,1.765-0.648,3.362-1.798,4.533C333.155,239.152,331.101,239.482,329.649,239.482z
	 M378.41,280.438c-1.542,1.572-3.595,1.903-5.046,1.903h-0.001c-3.156,0-6.473-1.478-9.101-4.055
	c-2.37-2.322-3.896-5.316-4.187-8.212c-0.14-1.39-0.097-4.004,1.754-5.892c1.542-1.571,3.595-1.902,5.047-1.902
	c3.154,0,6.472,1.477,9.1,4.055C380.471,270.74,381.586,277.198,378.41,280.438z"/>
<circle style="fill:#515262;" cx="323.866" cy="274.493" r="12.352"/>
<g>
	<path style="fill:#7DD2F0;" d="M504.061,371.228c-1.344,0-2.706-0.342-3.953-1.061l-24.807-14.298
		c-13.055-7.526-28.639-7.522-41.694,0c-18.012,10.382-39.521,10.382-57.534,0c-13.054-7.524-28.639-7.524-41.692,0
		c-18.013,10.382-39.524,10.381-57.535,0c-13.054-7.524-28.64-7.524-41.691,0c-18.013,10.381-39.523,10.383-57.535,0
		c-13.054-7.525-28.64-7.525-41.692,0c-3.795,2.185-8.644,0.883-10.832-2.911c-2.187-3.795-0.884-8.645,2.911-10.832
		c18.012-10.382,39.521-10.382,57.535,0c13.054,7.524,28.64,7.525,41.692,0c18.012-10.382,39.52-10.382,57.534,0
		c13.053,7.524,28.639,7.524,41.694,0c18.012-10.382,39.521-10.382,57.534,0c13.054,7.524,28.639,7.524,41.692,0
		c18.012-10.381,39.522-10.382,57.535,0l24.807,14.298c3.795,2.187,5.098,7.038,2.911,10.832
		C509.471,369.805,506.803,371.228,504.061,371.228z"/>
	<path style="fill:#7DD2F0;" d="M504.061,413.611c-1.344,0-2.706-0.342-3.953-1.061l-24.807-14.298
		c-13.055-7.525-28.639-7.523-41.694,0c-18.012,10.382-39.521,10.382-57.534,0c-13.054-7.524-28.639-7.524-41.692,0
		c-3.796,2.185-8.645,0.884-10.832-2.911c-2.187-3.795-0.884-8.645,2.911-10.832c18.012-10.382,39.521-10.382,57.534,0
		c13.054,7.524,28.639,7.524,41.692,0c18.012-10.383,39.522-10.382,57.535,0l24.807,14.298c3.795,2.187,5.098,7.038,2.911,10.832
		C509.471,412.188,506.803,413.611,504.061,413.611z"/>
	<path style="fill:#7DD2F0;" d="M504.061,328.844c-1.344,0-2.706-0.342-3.953-1.061l-24.807-14.298
		c-13.053-7.525-28.639-7.523-41.694,0c-18.012,10.385-39.52,10.383-57.535,0c-13.052-7.525-28.638-7.523-41.691,0
		c-18.012,10.385-39.521,10.383-57.536,0c-13.054-7.525-28.639-7.523-41.69,0c-18.013,10.383-39.523,10.383-57.536,0
		c-13.054-7.525-28.639-7.523-41.692,0c-18.012,10.383-39.521,10.383-57.535,0c-13.054-7.525-28.639-7.523-41.692,0l-24.807,14.298
		c-3.794,2.186-8.644,0.885-10.833-2.911c-2.187-3.794-0.884-8.645,2.91-10.832l24.807-14.298c18.013-10.382,39.522-10.382,57.535,0
		c13.054,7.524,28.639,7.524,41.692,0c18.013-10.382,39.522-10.382,57.535,0c13.054,7.524,28.639,7.524,41.692,0
		c18.013-10.382,39.521-10.382,57.535,0c13.054,7.524,28.641,7.526,41.692,0c18.014-10.383,39.522-10.382,57.535,0
		c13.054,7.524,28.64,7.524,41.691,0c18.014-10.381,39.524-10.382,57.536,0l24.807,14.298c3.795,2.187,5.098,7.038,2.911,10.832
		C509.471,327.42,506.803,328.844,504.061,328.844z"/>
</g>
<path style="fill:#70BBD6;" d="M404.471,203.326c-19.856-16.078-45.908-19.574-68.388-11.378l80.154,78.138
	c7.649-22.482,3.475-47.793-11.717-66.69L404.471,203.326z"/>
<path style="fill:#7CCFED;" d="M404.471,203.326c-2.833-3.515-6.048-6.809-9.641-9.819c-20.026-16.779-46.645-20.484-69.523-12.063
	l10.776,10.505C358.563,183.751,384.614,187.248,404.471,203.326z"/>
</svg>