<?xml version="1.0" encoding="iso-8859-1"?>
<!-- Uploaded to: SVG Repo, www.svgrepo.com, Generator: SVG Repo Mixer Tools -->
<svg version="1.1" id="Layer_1" xmlns="http://www.w3.org/2000/svg" xmlns:xlink="http://www.w3.org/1999/xlink" 
	 viewBox="0 0 512 512" xml:space="preserve">
<g>
	<path style="fill:#D3D2D2;" d="M311.579,161.403H93.527c-4.428,0-8.017-3.588-8.017-8.017s3.588-8.017,8.017-8.017h218.052
		c4.428,0,8.017,3.588,8.017,8.017S316.008,161.403,311.579,161.403z"/>
	<path style="fill:#D3D2D2;" d="M311.579,238.363H93.527c-4.428,0-8.017-3.588-8.017-8.017c0-4.428,3.588-8.017,8.017-8.017h218.052
		c4.428,0,8.017,3.588,8.017,8.017C319.596,234.775,316.008,238.363,311.579,238.363z"/>
	<path style="fill:#D3D2D2;" d="M311.579,315.324H93.527c-4.428,0-8.017-3.588-8.017-8.017s3.588-8.017,8.017-8.017h218.052
		c4.428,0,8.017,3.588,8.017,8.017S316.008,315.324,311.579,315.324z"/>
</g>
<g>
	<path style="fill:#BDBCBC;" d="M101.544,97.805c0-30.942,25.174-56.116,56.116-56.116s56.116,25.174,56.116,56.116
		c0,11.493,9.351,20.843,20.843,20.843s20.843-9.351,20.843-20.843c0-53.928-43.874-97.803-97.803-97.803
		S59.857,43.877,59.857,97.805v313.183h41.686V97.805z"/>
	<path style="fill:#BDBCBC;" d="M388.539,0.002c-53.928,0-97.803,43.874-97.803,97.803v313.183h41.686V97.805
		c0-30.942,25.174-56.116,56.116-56.116s56.116,25.174,56.116,56.116c0,11.493,9.351,20.843,20.843,20.843
		s20.843-9.351,20.843-20.843C486.341,43.877,442.467,0.002,388.539,0.002z"/>
</g>
<g>
	<rect x="59.857" y="349.599" style="fill:#A7A6A6;" width="41.686" height="61.386"/>
	<rect x="290.736" y="349.599" style="fill:#A7A6A6;" width="41.686" height="61.386"/>
</g>
<path style="fill:#6DDAE1;" d="M511.378,274.691c-1.913-11.113-8.039-20.819-17.252-27.324c-9.212-6.507-20.404-9.033-31.519-7.123
	c-19.769,3.403-64.999,41.037-73.864,48.546c-2.166,1.835-3.2,4.679-2.719,7.477c0.482,2.797,2.407,5.133,5.062,6.138
	c10.036,3.799,57.88,21.44,80.716,21.44c1.893,0,3.616-0.122,5.13-0.382h-0.001c11.114-1.912,20.82-8.039,27.325-17.251
	C510.761,297,513.29,285.805,511.378,274.691z"/>
<path style="fill:#4FC4D4;" d="M504.255,294.766c-6.506,9.211-16.211,15.338-27.325,17.251h0.001
	c-1.514,0.26-3.237,0.382-5.13,0.382c-22.835,0-70.68-17.641-80.716-21.44c-1.05-0.398-1.98-1.009-2.757-1.769
	c-1.873,1.833-2.755,4.469-2.306,7.077c0.482,2.797,2.407,5.133,5.062,6.138c10.036,3.799,57.88,21.44,80.716,21.44
	c1.893,0,3.616-0.122,5.13-0.382h-0.001c11.114-1.912,20.82-8.039,27.325-17.251c6.211-8.794,8.787-19.394,7.346-30.007
	C510.692,282.816,508.215,289.158,504.255,294.766z"/>
<path style="fill:#6DDAE1;" d="M448.87,207.511c4.344-10.407,4.376-21.883,0.088-32.313c-4.287-10.431-12.38-18.568-22.788-22.911
	c-10.409-4.346-21.886-4.376-32.313-0.088c-10.431,4.287-18.568,12.38-22.911,22.788c-7.727,18.512-0.207,76.868,1.378,88.378
	c0.387,2.813,2.234,5.211,4.854,6.303c0.994,0.416,2.043,0.619,3.087,0.619c1.707,0,3.399-0.545,4.808-1.601
	C394.369,261.718,441.144,226.024,448.87,207.511z"/>
<path style="fill:#4FC4D4;" d="M448.957,175.197c-0.055-0.134-0.118-0.262-0.173-0.394c0.585,6.704-0.45,13.495-3.116,19.882
	c-7.727,18.512-54.5,54.207-63.799,61.174c-1.409,1.056-3.101,1.601-4.808,1.601c-1.044,0-2.093-0.203-3.087-0.619
	c-1.058-0.441-1.981-1.103-2.742-1.911c0.453,3.725,0.843,6.645,1.089,8.435c0.387,2.813,2.234,5.211,4.854,6.303
	c0.994,0.416,2.043,0.619,3.087,0.619c1.707,0,3.399-0.545,4.808-1.601c9.298-6.968,56.072-42.662,63.799-61.174
	C453.215,197.104,453.246,185.629,448.957,175.197z"/>
<g>
	<circle style="fill:#C8F4F7;" cx="403.77" cy="171.823" r="14.163"/>
	<circle style="fill:#C8F4F7;" cx="472.179" cy="262.143" r="14.163"/>
</g>
<path style="fill:#4FC4D4;" d="M503.978,350.597h-0.162c-4.216,0-7.711,3.265-7.997,7.47c-1.923,28.177-25.569,50.249-53.834,50.249
	c-28.266,0-51.911-22.071-53.834-50.249c-0.288-4.206-3.782-7.47-7.997-7.47h-0.326c-4.216,0-7.711,3.265-7.997,7.47
	c-1.923,28.177-25.569,50.249-53.834,50.249s-51.911-22.071-53.834-50.249c-0.288-4.206-3.782-7.47-7.997-7.47h-0.326
	c-4.216,0-7.711,3.265-7.997,7.47c-1.923,28.177-25.569,50.249-53.834,50.249s-51.911-22.071-53.834-50.249
	c-0.288-4.206-3.782-7.47-7.997-7.47h-0.326c-4.216,0-7.711,3.265-7.997,7.47c-1.923,28.177-25.569,50.249-53.834,50.249
	s-51.911-22.071-53.834-50.249c-0.288-4.206-3.782-7.47-7.997-7.47H8.017c-4.428,0-8.017,3.588-8.017,8.017v145.368
	c0,4.428,3.588,8.017,8.017,8.017h495.961c4.428,0,8.017-3.588,8.017-8.017V358.613
	C511.995,354.185,508.406,350.597,503.978,350.597z"/>
<path style="fill:#6DDAE1;" d="M503.978,350.597h-0.162c-4.216,0-7.711,3.265-7.997,7.47c-1.923,28.177-25.569,50.249-53.834,50.249
	c-28.266,0-51.911-22.071-53.834-50.249c-0.288-4.206-3.782-7.47-7.997-7.47h-0.326c-4.216,0-7.711,3.265-7.997,7.47
	c-1.923,28.177-25.569,50.249-53.834,50.249s-51.911-22.071-53.834-50.249c-0.288-4.206-3.782-7.47-7.997-7.47h-0.326
	c-4.216,0-7.711,3.265-7.997,7.47c-1.923,28.177-25.569,50.249-53.834,50.249s-51.911-22.071-53.834-50.249
	c-0.288-4.206-3.782-7.47-7.997-7.47h-0.326c-4.216,0-7.711,3.265-7.997,7.47c-1.923,28.177-25.569,50.249-53.834,50.249
	s-51.911-22.071-53.834-50.249c-0.288-4.206-3.782-7.47-7.997-7.47H8.017c-4.428,0-8.017,3.588-8.017,8.017v80.701
	c0-4.428,3.588-8.017,8.017-8.017h0.162c4.216,0,7.711,3.265,7.997,7.47c1.923,28.177,25.569,50.249,53.834,50.249
	s51.911-22.071,53.834-50.249c0.288-4.206,3.782-7.47,7.997-7.47h0.326c4.216,0,7.711,3.265,7.997,7.47
	c1.923,28.177,25.569,50.249,53.834,50.249s51.911-22.071,53.834-50.249c0.288-4.206,3.782-7.47,7.997-7.47h0.326
	c4.216,0,7.711,3.265,7.997,7.47c1.923,28.177,25.569,50.249,53.834,50.249c28.266,0,51.911-22.071,53.834-50.249
	c0.288-4.206,3.782-7.47,7.997-7.47h0.326c4.216,0,7.711,3.265,7.997,7.47c1.923,28.177,25.569,50.249,53.834,50.249
	s51.911-22.071,53.834-50.249c0.288-4.206,3.782-7.47,7.997-7.47h0.163c4.428,0,8.017,3.588,8.017,8.017v-80.701
	C511.995,354.185,508.406,350.597,503.978,350.597z"/>
</svg>